<svg preserveAspectRatio="none" width="100%" height="100%" overflow="visible" style="display: block;" viewBox="0 0 12 12" fill="none" xmlns="http://www.w3.org/2000/svg">
<g id="Kimi &#229;&#133;&#141;&#232;&#180;&#185; SVG (2) 1">
<path id="Vector" d="M10.923 0C11.178 0 11.4226 0.101301 11.6029 0.281617C11.7832 0.461933 11.8845 0.706494 11.8845 0.9615C11.8845 1.21651 11.7832 1.46107 11.6029 1.64138C11.4226 1.8217 11.178 1.923 10.923 1.923H10.075C10.0601 1.92307 10.0454 1.92019 10.0316 1.91454C10.0178 1.90889 10.0053 1.90058 9.99477 1.89008C9.98423 1.87958 9.97586 1.8671 9.97015 1.85336C9.96444 1.83962 9.9615 1.82488 9.9615 1.81V0.9615C9.9615 0.4305 10.392 0 10.923 0Z" fill="var(--fill-0, #1783FF)"/>
<path id="Vector_2" d="M5.5325 5.5995L9.161 1.9995C9.2295 1.9315 9.191 1.7945 9.103 1.7945H7.15C7.13904 1.79462 7.12822 1.79695 7.11817 1.80133C7.10812 1.80571 7.09905 1.81206 7.0915 1.82L3.1815 5.698C3.1205 5.758 3.0305 5.7045 3.0305 5.6085V1.91C3.0305 1.8465 2.989 1.795 2.938 1.795H1.593C1.5415 1.795 1.5 1.8465 1.5 1.91V9.885C1.5 9.949 1.5415 10 1.593 10H2.938C2.9895 10 3.031 9.949 3.031 9.885V8.26C3.031 8.2255 3.0435 8.1925 3.0655 8.171L4.2775 6.968C4.29037 6.95412 4.3078 6.94532 4.32661 6.94321C4.34543 6.9411 4.36437 6.94582 4.38 6.9565L7.622 9.3425C8.13691 9.69328 8.72947 9.91345 9.3485 9.984C9.4025 9.99 9.4485 9.9365 9.4485 9.869V8.339C9.4485 8.2805 9.4135 8.233 9.3665 8.2255C9.00321 8.1668 8.65723 8.02906 8.353 7.822L5.5465 5.79C5.488 5.751 5.4805 5.6505 5.5325 5.5995Z" fill="var(--fill-0, white)"/>
</g>
</svg>
